<svg width="24" height="25" viewBox="0 0 24 25" fill="none" xmlns="http://www.w3.org/2000/svg">
<path d="M0 1.73019C0 0.774934 0.794024 7.66421e-05 1.77355 7.66421e-05H22.2264C23.2059 7.66421e-05 24 0.774934 24 1.73019V22.4222C24 23.3778 23.2059 24.1523 22.2264 24.1523H1.77355C0.794024 24.1523 0 23.3778 0 22.4222V1.73019Z" fill="#040A23"/>
<path fill-rule="evenodd" clip-rule="evenodd" d="M7.27482 20.2178V9.31167H3.64984V20.2178H7.27482ZM5.46231 7.82263C6.72642 7.82263 7.51322 6.98516 7.51322 5.93857C7.48966 4.86842 6.72642 4.05419 5.48629 4.05419C4.24629 4.05419 3.43555 4.86842 3.43555 5.93857C3.43555 6.98516 4.22218 7.82263 5.43868 7.82263H5.46231Z" fill="white"/>
<path fill-rule="evenodd" clip-rule="evenodd" d="M9.28076 20.2178H12.9057V14.1273C12.9057 13.8014 12.9293 13.4758 13.025 13.2428C13.287 12.5915 13.8835 11.917 14.8849 11.917C16.1966 11.917 16.7213 12.9171 16.7213 14.3833V20.2178H20.346V13.9644C20.346 10.6145 18.5576 9.05575 16.1727 9.05575C14.2171 9.05575 13.3586 10.1488 12.8816 10.8933H12.9058V9.31167H9.28086C9.32843 10.335 9.28076 20.2178 9.28076 20.2178Z" fill="white"/>
</svg>
