<svg width="24" height="24" viewBox="0 0 24 24" fill="none" xmlns="http://www.w3.org/2000/svg">
<g clip-path="url(#clip0_53_868)">
<path d="M24 12C24 18.6281 18.6281 24 12 24C5.37188 24 0 18.6281 0 12C0 5.37188 5.37188 0 12 0C18.6281 0 24 5.37188 24 12Z" fill="#040A23"/>
<path d="M8.09072 17.4562H6.64697V7.41553H8.09072V11.953V17.4562Z" fill="white"/>
<path d="M10.2095 7.41553H14.1095C17.822 7.41553 19.4532 10.0687 19.4532 12.4405C19.4532 15.0187 17.4376 17.4655 14.1282 17.4655H10.2095V7.41553ZM11.6532 16.1624H13.9501C17.222 16.1624 17.972 13.678 17.972 12.4405C17.972 10.4249 16.6876 8.71865 13.8751 8.71865H11.6532V16.1624Z" fill="white"/>
<path d="M8.31562 5.3248C8.31562 5.84043 7.89375 6.27168 7.36875 6.27168C6.84375 6.27168 6.42188 5.84043 6.42188 5.3248C6.42188 4.7998 6.84375 4.37793 7.36875 4.37793C7.89375 4.37793 8.31562 4.80918 8.31562 5.3248Z" fill="white"/>
</g>
<defs>
<clipPath id="clip0_53_868">
<rect width="24" height="24" fill="white"/>
</clipPath>
</defs>
</svg>
