<svg xmlns="http://www.w3.org/2000/svg" version="1.1" xmlns:xlink="http://www.w3.org/1999/xlink" width="1000" height="1000"><style>
    #light-icon {
      display: inline;
    }
    #dark-icon {
      display: none;
    }

    @media (prefers-color-scheme: dark) {
      #light-icon {
        display: none;
      }
      #dark-icon {
        display: inline;
      }
    }
  </style><g id="light-icon"><svg xmlns="http://www.w3.org/2000/svg" version="1.1" xmlns:xlink="http://www.w3.org/1999/xlink" width="1000" height="1000"><g><g transform="matrix(4.694835680751174,0,0,4.694835680751174,0,326.2910798122066)"><svg xmlns="http://www.w3.org/2000/svg" version="1.1" xmlns:xlink="http://www.w3.org/1999/xlink" width="213" height="74"><svg width="213" height="74" viewBox="0 0 213 74" fill="none" xmlns="http://www.w3.org/2000/svg">
<path d="M169.542 1.19813C173.875 0.956139 179.596 1.05182 183.916 1.37519C184.982 1.45496 188.584 11.2806 189.112 12.617L195.857 29.6045L207.08 57.5378C207.946 59.6943 212.875 70.6236 212.384 72.0878C212.299 72.1259 212.212 72.1614 212.124 72.1939C209.683 73.0984 201.108 72.7091 198.252 72.4371C197.196 72.3363 195.303 66.3408 194.846 65.1481L190.351 53.6062C186.731 44.2144 182.782 34.7177 179.248 25.3156C178.495 23.8508 177.76 20.1433 176.365 19.5101C174.988 22.4671 173.232 28.4277 171.872 31.9905L156.797 72.6777C154.475 72.673 143.226 72.997 141.744 72.0232C143.048 67.3642 145.716 61.0519 147.511 56.5032L155.574 35.801C158.672 27.7015 161.813 19.6185 164.996 11.5519C165.809 9.47401 168.093 2.31126 169.542 1.19813Z" fill="#00145E"></path>
<path d="M101.699 74C101.536 74 101.275 73.7561 101.054 73.5152C98.347 73.1413 95.8535 72.9242 93.2543 72.2007C75.7954 67.3411 68.6354 51.353 69.2359 34.277C69.5785 24.5341 73.1221 15.0324 80.3604 8.34145C88.5151 0.803368 97.8277 -0.393083 108.567 0.0949763C116.226 0.443094 123.635 2.84456 128.958 8.62007C132.478 12.4392 133.674 16.2218 135.062 21.0934C133.162 21.7545 122.063 24.0413 120.499 23.5944C119.616 22.2037 119.074 20.6601 118.233 19.3706C114.077 12.9958 106.49 11.9802 99.6061 13.1647C78.6396 16.7724 79.4629 57.2438 100.15 60.6401C107.363 61.8244 113.285 60.0079 119.312 56.1124C119.866 55.7536 120.419 55.3909 120.969 55.0246C121.131 52.1091 121.106 49.5689 121.066 46.6635C115.675 46.6008 110.283 46.5765 104.891 46.5899C104.884 42.5184 104.808 38.2123 104.904 34.1603C114.259 34.1561 126.809 33.7683 135.907 34.263L135.943 52.4461C135.944 55.5065 136.066 60.1792 135.753 63.0703C127.204 69.6913 119.449 72.5592 109.107 73.516C108.834 73.5412 108.675 74 108.5 74H101.699Z" fill="#00145E"></path>
<path d="M0 1.39145C4.96598 1.30361 9.93286 1.27411 14.8995 1.30295C14.9298 9.52888 15.3223 21.1496 14.9212 29.1098L42.3021 29.1059L42.2918 1.35003L57.0441 1.28613L57.0595 72.6899C54.0313 72.5897 44.7391 73.0959 42.8578 72.1593C41.9626 70.4815 42.1919 45.534 42.3002 41.721C33.1493 41.6561 23.9984 41.6399 14.8475 41.6723C14.9501 48.1982 14.9889 54.7248 14.9637 61.2515C14.9655 63.8835 15.1215 69.7976 14.6822 72.1405C13.4818 73.1639 1.62477 72.8166 0 72.0123L0 1.39145Z" fill="#00145E"></path>
</svg></svg></g></g></svg></g><g id="dark-icon"><svg xmlns="http://www.w3.org/2000/svg" version="1.1" xmlns:xlink="http://www.w3.org/1999/xlink" width="1000" height="1000"><g><g transform="matrix(4.694835680751174,0,0,4.694835680751174,0,326.2910798122066)"><svg xmlns="http://www.w3.org/2000/svg" version="1.1" xmlns:xlink="http://www.w3.org/1999/xlink" width="213" height="74"><svg width="213" height="74" viewBox="0 0 213 74" fill="none" xmlns="http://www.w3.org/2000/svg">
<path d="M169.542 1.19813C173.875 0.956139 179.596 1.05182 183.916 1.37519C184.982 1.45496 188.584 11.2806 189.112 12.617L195.857 29.6045L207.08 57.5378C207.946 59.6943 212.875 70.6236 212.384 72.0878C212.299 72.1259 212.212 72.1614 212.124 72.1939C209.683 73.0984 201.108 72.7091 198.252 72.4371C197.196 72.3363 195.303 66.3408 194.846 65.1481L190.351 53.6062C186.731 44.2144 182.782 34.7177 179.248 25.3156C178.495 23.8508 177.76 20.1433 176.365 19.5101C174.988 22.4671 173.232 28.4277 171.872 31.9905L156.797 72.6777C154.475 72.673 143.226 72.997 141.744 72.0232C143.048 67.3642 145.716 61.0519 147.511 56.5032L155.574 35.801C158.672 27.7015 161.813 19.6185 164.996 11.5519C165.809 9.47401 168.093 2.31126 169.542 1.19813Z" fill="#E8EAF4"></path>
<path d="M101.699 74C101.536 74 101.275 73.7561 101.054 73.5152C98.347 73.1413 95.8535 72.9242 93.2543 72.2007C75.7954 67.3411 68.6354 51.353 69.2359 34.277C69.5785 24.5341 73.1221 15.0324 80.3604 8.34145C88.5151 0.803368 97.8277 -0.393083 108.567 0.0949763C116.226 0.443094 123.635 2.84456 128.958 8.62007C132.478 12.4392 133.674 16.2218 135.062 21.0934C133.162 21.7545 122.063 24.0413 120.499 23.5944C119.616 22.2037 119.074 20.6601 118.233 19.3706C114.077 12.9958 106.49 11.9802 99.6061 13.1647C78.6396 16.7724 79.4629 57.2438 100.15 60.6401C107.363 61.8244 113.285 60.0079 119.312 56.1124C119.866 55.7536 120.419 55.3909 120.969 55.0246C121.131 52.1091 121.106 49.5689 121.066 46.6635C115.675 46.6008 110.283 46.5765 104.891 46.5899C104.884 42.5184 104.808 38.2123 104.904 34.1603C114.259 34.1561 126.809 33.7683 135.907 34.263L135.943 52.4461C135.944 55.5065 136.066 60.1792 135.753 63.0703C127.204 69.6913 119.449 72.5592 109.107 73.516C108.834 73.5412 108.675 74 108.5 74H101.699Z" fill="#E8EAF4"></path>
<path d="M0 1.39145C4.96598 1.30361 9.93286 1.27411 14.8995 1.30295C14.9298 9.52888 15.3223 21.1496 14.9212 29.1098L42.3021 29.1059L42.2918 1.35003L57.0441 1.28613L57.0595 72.6899C54.0313 72.5897 44.7391 73.0959 42.8578 72.1593C41.9626 70.4815 42.1919 45.534 42.3002 41.721C33.1493 41.6561 23.9984 41.6399 14.8475 41.6723C14.9501 48.1982 14.9889 54.7248 14.9637 61.2515C14.9655 63.8835 15.1215 69.7976 14.6822 72.1405C13.4818 73.1639 1.62477 72.8166 0 72.0123L0 1.39145Z" fill="#E8EAF4"></path>
</svg></svg></g></g></svg></g></svg>